# xmcd
#
# Track frame offsets: 
#        150
#        15303
#        29091
#        43809
#        61090
#        75941
#        90587
#        103519
#        120818
#        134378
#        151525
#        168189
#        185046
#        198831
#
# Disc length: 2910 seconds
#
# Revision: 3
# Processed by: cddbd v1.5.2PL0 Copyright (c) Steve Scherf et al.
# Submitted via: ExactAudioCopyFreeDBPlugin 1.0
#
DISCID=9b0b5c0e
DTITLE=Truck Stop - Immer geradeaus
DYEAR=2006
DGENRE=Deutsch Country
TTITLE0=Alle machen's
TTITLE1=Laxter Sand
TTITLE2=Kalte Pizza und lauwarmes Bier
TTITLE3=Grand Canyon
TTITLE4=Ist das nicht ein bisschen wenig
TTITLE5=Hand und Fuss
TTITLE6=Echte Cowboys weinen nie
TTITLE7=Alle Wege führ'n zurück zu dir
TTITLE8=Wir sind die Elbe Cowboys
TTITLE9=Engel, der zu nah am Boden fliegt
TTITLE10=Papa musste selbst erwachsen werden
TTITLE11=Susanna
TTITLE12=Blue Tattoo
TTITLE13=Immer geradeaus
EXTD=
EXTT0=
EXTT1=
EXTT2=
EXTT3=
EXTT4=
EXTT5=
EXTT6=
EXTT7=
EXTT8=
EXTT9=
EXTT10=
EXTT11=
EXTT12=
EXTT13=
PLAYORDER=
